<?xml version="1.0" encoding="UTF-8"?>
<svg id="Camada_4" data-name="Camada 4" xmlns="http://www.w3.org/2000/svg" viewBox="0 0 3307.91 1824.29">
  <defs>
    <style>
      .cls-1 {
        letter-spacing: -.02em;
      }

      .cls-2 {
        fill: #f5e6cc;
        font-family: RemoraCorp-W1Black, 'Remora Corp';
        font-size: 78.56px;
        font-weight: 800;
      }

      .cls-3 {
        fill: #f08c00;
      }
    </style>
  </defs>
  <text class="cls-2" transform="translate(121.01 342)"><tspan x="0" y="0">PON</tspan><tspan class="cls-1" x="145.81" y="0">T</tspan><tspan x="192.17" y="0">O </tspan><tspan x="0" y="65.68">MUSICAL</tspan></text>
  <g>
    <path class="cls-3" d="M98.83,386.62c-3.68-11.88-11.17-21.07-11.17-21.07,0,0-6.9-5.99-.99-19.38,5.91-13.39-5.24-32.11-25.95-33.18l-1.25-45.5s3.27-1.77,3.3-3.91c.03-2.14.03-7.71.03-7.71v-.05h2.79c.74,1.41,2.33,2.32,4.08,2.04,1.69-.27,3.02-1.67,3.21-3.37.27-2.35-1.56-4.34-3.86-4.34-1.49,0-2.79.85-3.44,2.09h-2.79v-8.79h2.79c.74,1.41,2.32,2.31,4.08,2.03,1.69-.26,3.03-1.67,3.22-3.37.27-2.35-1.56-4.35-3.86-4.35-1.49,0-2.79.84-3.44,2.09h-2.79v-6.38s.61-6.26-12.52-6.26-12.52,6.26-12.52,6.26v6.38h-2.79c-.65-1.24-1.95-2.09-3.44-2.09-2.3,0-4.13,1.99-3.86,4.35.19,1.7,1.53,3.1,3.22,3.37,1.76.28,3.34-.62,4.08-2.03h2.79v8.79h-2.79c-.65-1.24-1.95-2.09-3.44-2.09-2.3,0-4.13,1.99-3.86,4.34.2,1.7,1.53,3.1,3.21,3.37,1.75.28,3.35-.62,4.08-2.04h2.79v.05s0,5.58.03,7.71c.03,2.14,3.3,3.91,3.3,3.91l-1.25,45.5c-20.71,1.08-31.86,19.79-25.95,33.18,5.91,13.39-.99,19.38-.99,19.38,0,0-7.49,9.2-11.17,21.07-2.48,8.03-2.33,16.7.62,24.57,10.53,28.11,47.93,28.38,47.93,28.38,0,0,37.39-.26,47.93-28.38,2.95-7.87,3.1-16.54.62-24.57ZM50.28,367.59c-9.27,0-16.78-7.51-16.78-16.78s7.51-16.78,16.78-16.78,16.78,7.51,16.78,16.78-7.51,16.78-16.78,16.78Z"/>
    <path class="cls-3" d="M83.18,440.07l-28.5,38.82c-2.18,2.97-6.61,2.97-8.78,0l-28.5-38.82h1.69c8.13,4.71,19.12,7.61,31.21,7.61s23.07-2.89,31.21-7.61h1.69Z"/>
  </g>
</svg>